<svg width="25" height="28" viewBox="0 0 25 28" fill="none" xmlns="http://www.w3.org/2000/svg">
<path fill-rule="evenodd" clip-rule="evenodd" d="M7.71237 7.02523C8.67402 7.02523 9.51547 7.25061 10.3569 7.58869C10.8377 7.70139 11.4388 7.92677 11.9196 8.03947C12.8812 8.26485 13.8429 8.03947 14.6843 7.81408C15.2854 7.58869 16.0066 7.36331 16.7278 7.13792C18.7713 6.68715 20.6946 7.13792 22.2573 8.37755C22.7382 8.71563 23.0988 9.05371 23.4594 9.50448C23.5796 9.61717 23.5796 9.72987 23.4594 9.84256C21.7765 10.8568 20.6946 12.3218 20.5744 14.1249C20.4542 15.928 20.9351 17.5057 22.2573 18.7453C22.8584 19.3088 23.4594 19.7596 24.3008 20.0977C24.5412 20.0977 24.5412 20.0977 24.421 20.4357C23.5796 22.2388 22.4977 23.9292 21.0553 25.5069C20.5744 25.9577 20.0936 26.5212 19.3724 26.7466C18.4107 27.31 17.3289 27.31 16.247 26.7466C15.7662 26.6339 15.4056 26.4085 14.9247 26.2958C13.4823 25.845 12.0398 25.9577 10.5973 26.5212C10.2367 26.6339 9.87609 26.8593 9.51547 26.9719C8.1932 27.4227 6.99114 27.1973 5.78907 26.2958C5.06784 25.7323 4.58701 25.1689 4.10619 24.4927C2.90412 23.0277 1.94247 21.3373 1.34144 19.6469C0.860619 18.4073 0.620206 17.0549 0.5 15.8153C0.5 14.3503 0.5 12.8853 1.10103 11.533C2.06268 9.39179 3.74557 7.92677 6.14969 7.25061C6.63052 7.25061 7.11134 7.02523 7.59217 7.13792L7.71237 7.02523Z" fill="white"/>
<path fill-rule="evenodd" clip-rule="evenodd" d="M17.9299 1.21972C17.9299 2.45934 17.4491 3.47358 16.848 4.48782C16.0066 5.61476 15.045 6.29092 13.7227 6.74169C13.3621 6.85438 12.8812 6.96708 12.5206 6.96708C12.4004 6.96708 12.2802 6.96708 12.2802 6.74169C12.2802 5.84014 12.2802 5.05129 12.761 4.14974C13.6025 2.57204 14.9247 1.4451 16.7278 0.881636C17.0885 0.768943 17.4491 0.65625 17.8097 0.65625C17.9299 0.65625 18.0501 0.65625 18.0501 0.881636C18.0501 0.99433 18.0501 1.21972 18.0501 1.33241L17.9299 1.21972Z" fill="white"/>
</svg>
