<svg width="22" height="24" viewBox="0 0 22 24" fill="none" xmlns="http://www.w3.org/2000/svg">
<path d="M3.59876 0.305861C2.98047 -0.0663303 2.24359 -0.0996119 1.60093 0.210235L12.3762 11.0085L15.8994 7.4689L3.59876 0.305861ZM0.61092 1.20962C0.474981 1.49743 0.401855 1.81759 0.401855 2.14713V21.8995C0.401855 22.2304 0.47545 22.5459 0.612795 22.8276L11.3838 12.0055L0.61092 1.20962ZM12.3776 13.0011L1.61973 23.8102C1.9052 23.9423 2.20895 24 2.51224 24C2.88677 24 3.26037 23.9105 3.59881 23.707L15.9017 16.5332L12.3776 13.0011ZM20.5841 10.1971C20.5799 10.1942 20.5752 10.1914 20.571 10.1891L17.1557 8.20016L13.3695 12.0041L17.158 15.8005C17.158 15.8005 20.5799 13.8055 20.5841 13.8032C21.2193 13.4174 21.5985 12.7433 21.5985 11.9999C21.5985 11.2564 21.2193 10.5824 20.5841 10.1971Z" fill="white"/>
</svg>
